<svg width="266" height="58" viewBox="0 0 266 58" fill="none" xmlns="http://www.w3.org/2000/svg">
<mask id="path-1-outside-1_4_14" maskUnits="userSpaceOnUse" x="-3" y="-3" width="272" height="64" fill="black">
<rect fill="white" x="-3" y="-3" width="272" height="64"/>
<path d="M49.1089 57H36.6577L31.4209 28.9482C30.6152 25.1152 30.0415 20.5864 29.6997 15.3618L29.4067 18.0718L27.9053 29.0947L22.8149 57H10.3638L0.65918 3.45996H10.437L15.2344 33.6724C15.6982 36.6997 16.3208 41.4482 17.1021 47.918C17.7124 41.375 18.2861 36.6997 18.8232 33.8921L24.5361 3.45996H34.8633L40.5762 33.8921C41.333 38.4087 41.9312 43.1084 42.3706 47.9912C43.2251 40.7646 43.8477 35.9917 44.2383 33.6724L48.8892 3.45996H58.7402L49.1089 57ZM77.417 57.7324C72.3145 57.7324 68.2861 55.9258 65.332 52.3125C62.4023 48.6748 60.9375 43.5356 60.9375 36.895C60.9375 30.1567 62.2681 24.8955 64.9292 21.1113C67.5903 17.3271 71.3013 15.4351 76.062 15.4351C80.5054 15.4351 84.0088 17.0586 86.5723 20.3057C89.1357 23.5283 90.4175 28.0571 90.4175 33.8921V39.0923H70.8252C70.8984 42.73 71.6431 45.4399 73.0591 47.2222C74.4751 48.98 76.4282 49.8589 78.9185 49.8589C82.0923 49.8589 85.3394 48.8701 88.6597 46.8926V54.9126C85.5347 56.7925 81.7871 57.7324 77.417 57.7324ZM75.9888 22.9424C74.5972 22.9424 73.4497 23.687 72.5464 25.1763C71.6431 26.6411 71.1182 28.9238 70.9717 32.0244H80.8594C80.8105 29.0459 80.3589 26.7876 79.5044 25.2495C78.6499 23.7114 77.478 22.9424 75.9888 22.9424ZM106.604 57H96.8628V0.0175781H106.604V57ZM128.284 57.7324C123.425 57.7324 119.727 55.9624 117.188 52.4224C114.648 48.8823 113.379 43.6821 113.379 36.8218C113.379 29.644 114.575 24.2852 116.968 20.7451C119.385 17.2051 123.108 15.4351 128.137 15.4351C129.651 15.4351 131.238 15.6548 132.898 16.0942C134.558 16.5337 136.047 17.1685 137.366 17.9985L134.583 25.5791C132.556 24.3828 130.762 23.7847 129.199 23.7847C127.124 23.7847 125.623 24.8711 124.695 27.0439C123.792 29.1924 123.34 32.4272 123.34 36.7485C123.34 40.9722 123.792 44.1338 124.695 46.2334C125.598 48.3086 127.075 49.3462 129.126 49.3462C131.567 49.3462 134.119 48.4917 136.78 46.7827V55.3521C134.216 56.939 131.384 57.7324 128.284 57.7324ZM172.852 36.5288C172.852 43.2183 171.436 48.4307 168.604 52.166C165.771 55.877 161.89 57.7324 156.958 57.7324C153.833 57.7324 151.074 56.8779 148.682 55.1689C146.289 53.46 144.446 51.0063 143.152 47.8081C141.858 44.5854 141.211 40.8257 141.211 36.5288C141.211 29.9126 142.615 24.749 145.422 21.0381C148.23 17.3027 152.124 15.4351 157.104 15.4351C161.914 15.4351 165.735 17.3394 168.567 21.1479C171.423 24.9321 172.852 30.0591 172.852 36.5288ZM151.172 36.5288C151.172 40.7769 151.636 43.9873 152.563 46.1602C153.491 48.333 154.98 49.4194 157.031 49.4194C160.938 49.4194 162.891 45.1226 162.891 36.5288C162.891 32.2563 162.415 29.0703 161.462 26.9707C160.535 24.8467 159.058 23.7847 157.031 23.7847C154.98 23.7847 153.491 24.8467 152.563 26.9707C151.636 29.0703 151.172 32.2563 151.172 36.5288ZM220.203 57V32.6836C220.203 26.7021 218.726 23.7114 215.771 23.7114C213.623 23.7114 212.085 24.7856 211.157 26.9341C210.229 29.0581 209.766 32.4761 209.766 37.188V57H199.951V32.6836C199.951 26.7021 198.45 23.7114 195.447 23.7114C193.347 23.7114 191.821 24.7734 190.869 26.8975C189.917 29.0215 189.441 32.5249 189.441 37.4077V57H179.7V16.2041H187.427L188.599 21.4409H189.221C190.198 19.3657 191.528 17.8521 193.213 16.8999C194.922 15.9233 196.741 15.4351 198.669 15.4351C203.65 15.4351 206.97 17.791 208.63 22.5029H208.997C211.072 17.791 214.404 15.4351 218.994 15.4351C222.607 15.4351 225.342 16.7046 227.197 19.2437C229.077 21.7827 230.017 25.4937 230.017 30.3765V57H220.203ZM252.979 57.7324C247.876 57.7324 243.848 55.9258 240.894 52.3125C237.964 48.6748 236.499 43.5356 236.499 36.895C236.499 30.1567 237.83 24.8955 240.491 21.1113C243.152 17.3271 246.863 15.4351 251.624 15.4351C256.067 15.4351 259.57 17.0586 262.134 20.3057C264.697 23.5283 265.979 28.0571 265.979 33.8921V39.0923L246.387 39.0923C246.46 42.73 247.205 45.4399 248.621 47.2222C250.037 48.98 251.99 49.8589 254.48 49.8589C257.654 49.8589 260.901 48.8701 264.221 46.8926V54.9126C261.096 56.7925 257.349 57.7324 252.979 57.7324ZM251.55 22.9424C250.159 22.9424 249.011 23.687 248.108 25.1763C247.205 26.6411 246.68 28.9238 246.533 32.0244L256.421 32.0244C256.372 29.0459 255.92 26.7876 255.066 25.2495C254.211 23.7114 253.04 22.9424 251.55 22.9424Z"/>
</mask>
<path d="M49.1089 57H36.6577L31.4209 28.9482C30.6152 25.1152 30.0415 20.5864 29.6997 15.3618L29.4067 18.0718L27.9053 29.0947L22.8149 57H10.3638L0.65918 3.45996H10.437L15.2344 33.6724C15.6982 36.6997 16.3208 41.4482 17.1021 47.918C17.7124 41.375 18.2861 36.6997 18.8232 33.8921L24.5361 3.45996H34.8633L40.5762 33.8921C41.333 38.4087 41.9312 43.1084 42.3706 47.9912C43.2251 40.7646 43.8477 35.9917 44.2383 33.6724L48.8892 3.45996H58.7402L49.1089 57ZM77.417 57.7324C72.3145 57.7324 68.2861 55.9258 65.332 52.3125C62.4023 48.6748 60.9375 43.5356 60.9375 36.895C60.9375 30.1567 62.2681 24.8955 64.9292 21.1113C67.5903 17.3271 71.3013 15.4351 76.062 15.4351C80.5054 15.4351 84.0088 17.0586 86.5723 20.3057C89.1357 23.5283 90.4175 28.0571 90.4175 33.8921V39.0923H70.8252C70.8984 42.73 71.6431 45.4399 73.0591 47.2222C74.4751 48.98 76.4282 49.8589 78.9185 49.8589C82.0923 49.8589 85.3394 48.8701 88.6597 46.8926V54.9126C85.5347 56.7925 81.7871 57.7324 77.417 57.7324ZM75.9888 22.9424C74.5972 22.9424 73.4497 23.687 72.5464 25.1763C71.6431 26.6411 71.1182 28.9238 70.9717 32.0244H80.8594C80.8105 29.0459 80.3589 26.7876 79.5044 25.2495C78.6499 23.7114 77.478 22.9424 75.9888 22.9424ZM106.604 57H96.8628V0.0175781H106.604V57ZM128.284 57.7324C123.425 57.7324 119.727 55.9624 117.188 52.4224C114.648 48.8823 113.379 43.6821 113.379 36.8218C113.379 29.644 114.575 24.2852 116.968 20.7451C119.385 17.2051 123.108 15.4351 128.137 15.4351C129.651 15.4351 131.238 15.6548 132.898 16.0942C134.558 16.5337 136.047 17.1685 137.366 17.9985L134.583 25.5791C132.556 24.3828 130.762 23.7847 129.199 23.7847C127.124 23.7847 125.623 24.8711 124.695 27.0439C123.792 29.1924 123.34 32.4272 123.34 36.7485C123.34 40.9722 123.792 44.1338 124.695 46.2334C125.598 48.3086 127.075 49.3462 129.126 49.3462C131.567 49.3462 134.119 48.4917 136.78 46.7827V55.3521C134.216 56.939 131.384 57.7324 128.284 57.7324ZM172.852 36.5288C172.852 43.2183 171.436 48.4307 168.604 52.166C165.771 55.877 161.89 57.7324 156.958 57.7324C153.833 57.7324 151.074 56.8779 148.682 55.1689C146.289 53.46 144.446 51.0063 143.152 47.8081C141.858 44.5854 141.211 40.8257 141.211 36.5288C141.211 29.9126 142.615 24.749 145.422 21.0381C148.23 17.3027 152.124 15.4351 157.104 15.4351C161.914 15.4351 165.735 17.3394 168.567 21.1479C171.423 24.9321 172.852 30.0591 172.852 36.5288ZM151.172 36.5288C151.172 40.7769 151.636 43.9873 152.563 46.1602C153.491 48.333 154.98 49.4194 157.031 49.4194C160.938 49.4194 162.891 45.1226 162.891 36.5288C162.891 32.2563 162.415 29.0703 161.462 26.9707C160.535 24.8467 159.058 23.7847 157.031 23.7847C154.98 23.7847 153.491 24.8467 152.563 26.9707C151.636 29.0703 151.172 32.2563 151.172 36.5288ZM220.203 57V32.6836C220.203 26.7021 218.726 23.7114 215.771 23.7114C213.623 23.7114 212.085 24.7856 211.157 26.9341C210.229 29.0581 209.766 32.4761 209.766 37.188V57H199.951V32.6836C199.951 26.7021 198.45 23.7114 195.447 23.7114C193.347 23.7114 191.821 24.7734 190.869 26.8975C189.917 29.0215 189.441 32.5249 189.441 37.4077V57H179.7V16.2041H187.427L188.599 21.4409H189.221C190.198 19.3657 191.528 17.8521 193.213 16.8999C194.922 15.9233 196.741 15.4351 198.669 15.4351C203.65 15.4351 206.97 17.791 208.63 22.5029H208.997C211.072 17.791 214.404 15.4351 218.994 15.4351C222.607 15.4351 225.342 16.7046 227.197 19.2437C229.077 21.7827 230.017 25.4937 230.017 30.3765V57H220.203ZM252.979 57.7324C247.876 57.7324 243.848 55.9258 240.894 52.3125C237.964 48.6748 236.499 43.5356 236.499 36.895C236.499 30.1567 237.83 24.8955 240.491 21.1113C243.152 17.3271 246.863 15.4351 251.624 15.4351C256.067 15.4351 259.57 17.0586 262.134 20.3057C264.697 23.5283 265.979 28.0571 265.979 33.8921V39.0923L246.387 39.0923C246.46 42.73 247.205 45.4399 248.621 47.2222C250.037 48.98 251.99 49.8589 254.48 49.8589C257.654 49.8589 260.901 48.8701 264.221 46.8926V54.9126C261.096 56.7925 257.349 57.7324 252.979 57.7324ZM251.55 22.9424C250.159 22.9424 249.011 23.687 248.108 25.1763C247.205 26.6411 246.68 28.9238 246.533 32.0244L256.421 32.0244C256.372 29.0459 255.92 26.7876 255.066 25.2495C254.211 23.7114 253.04 22.9424 251.55 22.9424Z" fill="black"/>
<path d="M49.1089 57V60H51.6174L52.0615 57.5311L49.1089 57ZM36.6577 57L33.7087 57.5505L34.1659 60H36.6577V57ZM31.4209 28.9482L34.3699 28.3977L34.3637 28.3644L34.3567 28.3312L31.4209 28.9482ZM29.6997 15.3618L32.6933 15.166L26.7171 15.0394L29.6997 15.3618ZM29.4067 18.0718L32.3793 18.4767L32.3849 18.4355L32.3894 18.3942L29.4067 18.0718ZM27.9053 29.0947L30.8566 29.6331L30.8687 29.5666L30.8778 29.4996L27.9053 29.0947ZM22.8149 57V60H25.3172L25.7662 57.5384L22.8149 57ZM10.3638 57L7.41187 57.5351L7.85866 60H10.3638V57ZM0.65918 3.45996V0.459961H-2.93348L-2.29272 3.99502L0.65918 3.45996ZM10.437 3.45996L13.3999 2.98949L12.9982 0.459961H10.437V3.45996ZM15.2344 33.6724L18.1998 33.218L18.1985 33.2099L18.1973 33.2019L15.2344 33.6724ZM17.1021 47.918L14.1237 48.2776L20.0891 48.1966L17.1021 47.918ZM18.8232 33.8921L21.7698 34.4558L21.7717 34.4456L18.8232 33.8921ZM24.5361 3.45996V0.459961H22.0469L21.5876 2.90645L24.5361 3.45996ZM34.8633 3.45996L37.8118 2.90645L37.3525 0.459961H34.8633V3.45996ZM40.5762 33.8921L43.5349 33.3963L43.5301 33.3674L43.5247 33.3386L40.5762 33.8921ZM42.3706 47.9912L39.3827 48.2601L45.3499 48.3435L42.3706 47.9912ZM44.2383 33.6724L47.1966 34.1706L47.2001 34.1497L47.2034 34.1288L44.2383 33.6724ZM48.8892 3.45996V0.459961H46.3156L45.9241 3.00352L48.8892 3.45996ZM58.7402 3.45996L61.6928 3.99111L62.3281 0.459961H58.7402V3.45996ZM49.1089 54H36.6577V60H49.1089V54ZM39.6068 56.4495L34.3699 28.3977L28.4718 29.4988L33.7087 57.5505L39.6068 56.4495ZM34.3567 28.3312C33.5881 24.6743 33.0287 20.2929 32.6933 15.166L26.7061 15.5577C27.0543 20.88 27.6424 25.5562 28.4851 29.5653L34.3567 28.3312ZM26.7171 15.0394L26.4241 17.7493L32.3894 18.3942L32.6823 15.6843L26.7171 15.0394ZM26.4342 17.6669L24.9327 28.6898L30.8778 29.4996L32.3793 18.4767L26.4342 17.6669ZM24.954 28.5564L19.8636 56.4616L25.7662 57.5384L30.8566 29.6331L24.954 28.5564ZM22.8149 54H10.3638V60H22.8149V54ZM13.3157 56.4649L3.61108 2.9249L-2.29272 3.99502L7.41187 57.5351L13.3157 56.4649ZM0.65918 6.45996H10.437V0.459961H0.65918L0.65918 6.45996ZM7.47413 3.93043L12.2715 34.1428L18.1973 33.2019L13.3999 2.98949L7.47413 3.93043ZM12.269 34.1267C12.7252 37.104 13.343 41.8126 14.1237 48.2776L20.0804 47.5583C19.2986 41.0839 18.6713 36.2955 18.1998 33.218L12.269 34.1267ZM20.0891 48.1966C20.6989 41.659 21.2622 37.1093 21.7698 34.4558L15.8767 33.3284C15.3101 36.2901 14.7259 41.091 14.115 47.6393L20.0891 48.1966ZM21.7717 34.4456L27.4846 4.01347L21.5876 2.90645L15.8747 33.3386L21.7717 34.4456ZM24.5361 6.45996H34.8633V0.459961H24.5361V6.45996ZM31.9148 4.01347L37.6277 34.4456L43.5247 33.3386L37.8118 2.90645L31.9148 4.01347ZM37.6174 34.3879C38.3608 38.8242 38.9496 43.448 39.3827 48.2601L45.3585 47.7223C44.9127 42.7688 44.3052 37.9932 43.5349 33.3963L37.6174 34.3879ZM45.3499 48.3435C46.206 41.103 46.8204 36.4045 47.1966 34.1706L41.2799 33.1741C40.8749 35.5789 40.2442 40.4263 39.3914 47.6389L45.3499 48.3435ZM47.2034 34.1288L51.8542 3.9164L45.9241 3.00352L41.2732 33.2159L47.2034 34.1288ZM48.8892 6.45996H58.7402V0.459961H48.8892V6.45996ZM55.7876 2.92881L46.1563 56.4689L52.0615 57.5311L61.6928 3.99111L55.7876 2.92881ZM65.332 52.3125L62.9956 54.1942L63.0025 54.2028L63.0095 54.2114L65.332 52.3125ZM86.5723 20.3057L84.2176 22.1646L84.2245 22.1732L86.5723 20.3057ZM90.4175 39.0923V42.0923H93.4175V39.0923H90.4175ZM70.8252 39.0923V36.0923H67.7642L67.8258 39.1527L70.8252 39.0923ZM73.0591 47.2222L70.7102 49.0884L70.7165 49.0963L70.7228 49.1042L73.0591 47.2222ZM88.6597 46.8926H91.6597V41.614L87.1246 44.3151L88.6597 46.8926ZM88.6597 54.9126L90.2061 57.4833L91.6597 56.6089V54.9126H88.6597ZM72.5464 25.1763L75.0999 26.7509L75.1057 26.7415L75.1114 26.7321L72.5464 25.1763ZM70.9717 32.0244L67.975 31.8828L67.8266 35.0244H70.9717V32.0244ZM80.8594 32.0244V35.0244H83.909L83.859 31.9752L80.8594 32.0244ZM77.417 54.7324C73.1191 54.7324 69.9811 53.2592 67.6546 50.4136L63.0095 54.2114C66.5912 58.5923 71.5099 60.7324 77.417 60.7324V54.7324ZM67.6685 50.4308C65.3171 47.5111 63.9375 43.1337 63.9375 36.895H57.9375C57.9375 43.9376 59.4876 49.8385 62.9956 54.1942L67.6685 50.4308ZM63.9375 36.895C63.9375 30.5053 65.2059 25.9331 67.3832 22.837L62.4752 19.3856C59.3302 23.8579 57.9375 29.8082 57.9375 36.895H63.9375ZM67.3832 22.837C69.4633 19.879 72.2441 18.4351 76.062 18.4351V12.4351C70.3584 12.4351 65.7173 14.7753 62.4752 19.3856L67.3832 22.837ZM76.062 18.4351C79.6655 18.4351 82.2699 19.6974 84.2176 22.1646L88.9269 18.4467C85.7477 14.4198 81.3452 12.4351 76.062 12.4351V18.4351ZM84.2245 22.1732C86.2207 24.6828 87.4175 28.4587 87.4175 33.8921H93.4175C93.4175 27.6555 92.0508 22.3739 88.9201 18.4381L84.2245 22.1732ZM87.4175 33.8921V39.0923H93.4175V33.8921H87.4175ZM90.4175 36.0923H70.8252V42.0923H90.4175V36.0923ZM67.8258 39.1527C67.9049 43.0824 68.7052 46.5649 70.7102 49.0884L75.408 45.3559C74.5809 44.315 73.8919 42.3775 73.8246 39.0319L67.8258 39.1527ZM70.7228 49.1042C72.772 51.648 75.6271 52.8589 78.9185 52.8589V46.8589C77.2293 46.8589 76.1781 46.3119 75.3953 45.3402L70.7228 49.1042ZM78.9185 52.8589C82.7392 52.8589 86.5111 51.664 90.1948 49.4701L87.1246 44.3151C84.1676 46.0762 81.4453 46.8589 78.9185 46.8589V52.8589ZM85.6597 46.8926V54.9126H91.6597V46.8926H85.6597ZM87.1132 52.3419C84.5402 53.8897 81.3508 54.7324 77.417 54.7324V60.7324C82.2234 60.7324 86.5291 59.6952 90.2061 57.4833L87.1132 52.3419ZM75.9888 19.9424C73.2763 19.9424 71.2707 21.4948 69.9814 23.6204L75.1114 26.7321C75.3908 26.2715 75.6118 26.086 75.7176 26.0174C75.7962 25.9664 75.8619 25.9424 75.9888 25.9424V19.9424ZM69.9929 23.6016C68.6857 25.7213 68.129 28.6229 67.975 31.8828L73.9683 32.166C74.1073 29.2247 74.6004 27.5609 75.0999 26.7509L69.9929 23.6016ZM70.9717 35.0244H80.8594V29.0244H70.9717V35.0244ZM83.859 31.9752C83.807 28.8028 83.3331 25.9638 82.1269 23.7926L76.8819 26.7064C77.3847 27.6114 77.8141 29.289 77.8598 32.0736L83.859 31.9752ZM82.1269 23.7926C80.858 21.5087 78.785 19.9424 75.9888 19.9424V25.9424C76.1869 25.9424 76.2728 25.9841 76.3386 26.0273C76.4283 26.0861 76.6315 26.2556 76.8819 26.7064L82.1269 23.7926ZM106.604 57V60H109.604V57H106.604ZM96.8628 57H93.8628V60H96.8628V57ZM96.8628 0.0175781V-2.98242H93.8628V0.0175781H96.8628ZM106.604 0.0175781H109.604V-2.98242H106.604V0.0175781ZM106.604 54H96.8628V60H106.604V54ZM99.8628 57V0.0175781H93.8628V57H99.8628ZM96.8628 3.01758H106.604V-2.98242H96.8628V3.01758ZM103.604 0.0175781V57H109.604V0.0175781H103.604ZM116.968 20.7451L114.49 19.0535L114.486 19.0594L114.482 19.0652L116.968 20.7451ZM137.366 17.9985L140.182 19.0325L141.019 16.7534L138.964 15.4598L137.366 17.9985ZM134.583 25.5791L133.057 28.1625L136.158 29.9929L137.399 26.6131L134.583 25.5791ZM124.695 27.0439L121.936 25.8659L121.933 25.8735L121.929 25.8812L124.695 27.0439ZM124.695 46.2334L121.939 47.419L121.944 47.4308L124.695 46.2334ZM136.78 46.7827H139.78V41.2907L135.159 44.2584L136.78 46.7827ZM136.78 55.3521L138.359 57.9028L139.78 57.0232V55.3521H136.78ZM128.284 54.7324C124.263 54.7324 121.53 53.329 119.625 50.6739L114.75 54.1708C117.924 58.5958 122.588 60.7324 128.284 60.7324V54.7324ZM119.625 50.6739C117.608 47.8608 116.379 43.3892 116.379 36.8218H110.379C110.379 43.9751 111.689 49.9039 114.75 54.1708L119.625 50.6739ZM116.379 36.8218C116.379 29.8777 117.554 25.2345 119.453 22.425L114.482 19.0652C111.596 23.3358 110.379 29.4104 110.379 36.8218H116.379ZM119.445 22.4367C121.2 19.8663 123.901 18.4351 128.137 18.4351V12.4351C122.314 12.4351 117.569 14.5439 114.49 19.0535L119.445 22.4367ZM128.137 18.4351C129.36 18.4351 130.688 18.6125 132.13 18.9944L133.666 13.1941C131.788 12.6971 129.942 12.4351 128.137 12.4351V18.4351ZM132.13 18.9944C133.527 19.364 134.731 19.8846 135.767 20.5372L138.964 15.4598C137.364 14.4523 135.59 13.7034 133.666 13.1941L132.13 18.9944ZM134.55 16.9646L131.766 24.5451L137.399 26.6131L140.182 19.0325L134.55 16.9646ZM136.108 22.9957C133.836 21.6545 131.504 20.7847 129.199 20.7847V26.7847C130.02 26.7847 131.277 27.1111 133.057 28.1625L136.108 22.9957ZM129.199 20.7847C127.609 20.7847 126.081 21.2118 124.758 22.169C123.461 23.1078 122.555 24.4145 121.936 25.8659L127.454 28.222C127.762 27.5005 128.071 27.1776 128.275 27.03C128.454 26.9008 128.714 26.7847 129.199 26.7847V20.7847ZM121.929 25.8812C120.79 28.5905 120.34 32.3105 120.34 36.7485H126.34C126.34 32.544 126.793 29.7943 127.46 28.2067L121.929 25.8812ZM120.34 36.7485C120.34 41.0927 120.79 44.7494 121.939 47.419L127.451 45.0478C126.793 43.5182 126.34 40.8516 126.34 36.7485H120.34ZM121.944 47.4308C122.56 48.8466 123.465 50.1158 124.756 51.0228C126.066 51.9434 127.571 52.3462 129.126 52.3462V46.3462C128.631 46.3462 128.371 46.2301 128.205 46.1132C128.019 45.9826 127.733 45.6954 127.446 45.036L121.944 47.4308ZM129.126 52.3462C132.289 52.3462 135.397 51.2361 138.401 49.307L135.159 44.2584C132.84 45.7473 130.845 46.3462 129.126 46.3462V52.3462ZM133.78 46.7827V55.3521H139.78V46.7827H133.78ZM135.201 52.8013C133.126 54.0859 130.843 54.7324 128.284 54.7324V60.7324C131.925 60.7324 135.307 59.7921 138.359 57.9028L135.201 52.8013ZM168.604 52.166L170.988 53.986L170.994 53.9785L168.604 52.166ZM143.152 47.8081L140.368 48.9259L140.371 48.9332L143.152 47.8081ZM145.422 21.0381L147.815 22.8482L147.82 22.8406L145.422 21.0381ZM168.567 21.1479L166.16 22.9381L166.166 22.9467L166.172 22.9554L168.567 21.1479ZM161.462 26.9707L158.713 28.1715L158.722 28.1907L158.73 28.2097L161.462 26.9707ZM152.563 26.9707L155.308 28.1832L155.313 28.1715L152.563 26.9707ZM169.852 36.5288C169.852 42.8349 168.512 47.3208 166.213 50.3535L170.994 53.9785C174.359 49.5405 175.852 43.6016 175.852 36.5288H169.852ZM166.219 50.346C163.99 53.2658 161.016 54.7324 156.958 54.7324V60.7324C162.764 60.7324 167.553 58.4881 170.988 53.986L166.219 50.346ZM156.958 54.7324C154.417 54.7324 152.276 54.0498 150.425 52.7277L146.938 57.6101C149.872 59.706 153.249 60.7324 156.958 60.7324V54.7324ZM150.425 52.7277C148.572 51.4039 147.051 49.4461 145.933 46.683L140.371 48.9332C141.841 52.5666 144.006 55.516 146.938 57.6101L150.425 52.7277ZM145.936 46.6903C144.814 43.8964 144.211 40.5306 144.211 36.5288H138.211C138.211 41.1207 138.902 45.2745 140.368 48.9259L145.936 46.6903ZM144.211 36.5288C144.211 30.2983 145.537 25.8587 147.815 22.8481L143.03 19.228C139.692 23.6393 138.211 29.5269 138.211 36.5288H144.211ZM147.82 22.8406C150.019 19.9151 152.995 18.4351 157.104 18.4351V12.4351C151.253 12.4351 146.441 14.6903 143.024 19.2356L147.82 22.8406ZM157.104 18.4351C160.98 18.4351 163.902 19.9026 166.16 22.9381L170.974 19.3578C167.567 14.7761 162.848 12.4351 157.104 12.4351V18.4351ZM166.172 22.9554C168.515 26.0586 169.852 30.477 169.852 36.5288H175.852C175.852 29.6412 174.332 23.8057 170.961 19.3405L166.172 22.9554ZM148.172 36.5288C148.172 40.9101 148.638 44.6054 149.804 47.3382L155.323 44.9821C154.634 43.3692 154.172 40.6436 154.172 36.5288H148.172ZM149.804 47.3382C150.422 48.784 151.32 50.0888 152.608 51.0282C153.924 51.9879 155.445 52.4194 157.031 52.4194V46.4194C156.566 46.4194 156.318 46.3078 156.144 46.181C155.943 46.034 155.633 45.7092 155.323 44.9821L149.804 47.3382ZM157.031 52.4194C158.595 52.4194 160.082 51.9764 161.369 51.033C162.622 50.1141 163.518 48.8442 164.157 47.4382C165.402 44.6996 165.891 40.9591 165.891 36.5288H159.891C159.891 40.6923 159.403 43.3971 158.695 44.9554C158.357 45.6977 158.032 46.0393 157.821 46.1946C157.642 46.3253 157.421 46.4194 157.031 46.4194V52.4194ZM165.891 36.5288C165.891 32.1324 165.416 28.425 164.195 25.7317L158.73 28.2097C159.413 29.7156 159.891 32.3803 159.891 36.5288H165.891ZM164.212 25.7699C163.59 24.3473 162.691 23.0662 161.41 22.1454C160.104 21.2061 158.598 20.7847 157.031 20.7847V26.7847C157.491 26.7847 157.737 26.8942 157.907 27.0169C158.104 27.1582 158.407 27.4701 158.713 28.1715L164.212 25.7699ZM157.031 20.7847C155.46 20.7847 153.948 21.2017 152.634 22.1386C151.344 23.0586 150.438 24.3416 149.814 25.7699L155.313 28.1715C155.617 27.4758 155.919 27.1657 156.118 27.0237C156.294 26.8986 156.551 26.7847 157.031 26.7847V20.7847ZM149.819 25.7582C148.634 28.4412 148.172 32.137 148.172 36.5288H154.172C154.172 32.3757 154.638 29.6994 155.308 28.1832L149.819 25.7582ZM220.203 57H217.203V60H220.203V57ZM211.157 26.9341L213.906 28.1349L213.911 28.1234L211.157 26.9341ZM209.766 57V60H212.766V57H209.766ZM199.951 57H196.951V60H199.951V57ZM189.441 57V60H192.441V57H189.441ZM179.7 57H176.7V60H179.7V57ZM179.7 16.2041V13.2041H176.7V16.2041H179.7ZM187.427 16.2041L190.354 15.549L189.83 13.2041H187.427V16.2041ZM188.599 21.4409L185.671 22.096L186.196 24.4409H188.599V21.4409ZM189.221 21.4409V24.4409H191.125L191.936 22.7183L189.221 21.4409ZM193.213 16.8999L194.689 19.5116L194.701 19.5046L193.213 16.8999ZM208.63 22.5029L205.801 23.4999L206.507 25.5029H208.63V22.5029ZM208.997 22.5029V25.5029H210.953L211.742 23.7121L208.997 22.5029ZM227.197 19.2437L224.775 21.0137L224.781 21.0213L224.786 21.0288L227.197 19.2437ZM230.017 57V60H233.017V57H230.017ZM223.203 57V32.6836H217.203V57H223.203ZM223.203 32.6836C223.203 29.5424 222.831 26.7436 221.785 24.626C221.241 23.5254 220.469 22.515 219.388 21.7856C218.287 21.0423 217.043 20.7114 215.771 20.7114V26.7114C215.977 26.7114 216.025 26.7544 216.032 26.7588C216.059 26.7771 216.21 26.8882 216.405 27.2829C216.836 28.1561 217.203 29.8433 217.203 32.6836H223.203ZM215.771 20.7114C214.175 20.7114 212.632 21.1193 211.289 22.0576C209.962 22.984 209.033 24.285 208.403 25.7448L213.911 28.1234C214.209 27.4347 214.513 27.1244 214.724 26.9766C214.919 26.8407 215.219 26.7114 215.771 26.7114V20.7114ZM208.408 25.7333C207.219 28.4565 206.766 32.4021 206.766 37.188H212.766C212.766 32.5501 213.24 29.6597 213.906 28.1349L208.408 25.7333ZM206.766 37.188V57H212.766V37.188H206.766ZM209.766 54H199.951V60H209.766V54ZM202.951 57V32.6836H196.951V57H202.951ZM202.951 32.6836C202.951 29.5387 202.572 26.7322 201.506 24.6085C200.952 23.5039 200.167 22.4969 199.077 21.7729C197.968 21.0369 196.72 20.7114 195.447 20.7114V26.7114C195.675 26.7114 195.74 26.7598 195.758 26.7715C195.794 26.7952 195.948 26.9096 196.144 27.3005C196.579 28.1674 196.951 29.847 196.951 32.6836H202.951ZM195.447 20.7114C193.867 20.7114 192.343 21.1203 191.014 22.0456C189.704 22.9573 188.775 24.2354 188.132 25.6703L193.607 28.1246C193.916 27.4355 194.225 27.1206 194.441 26.9702C194.638 26.8335 194.927 26.7114 195.447 26.7114V20.7114ZM188.132 25.6703C186.902 28.4125 186.441 32.4658 186.441 37.4077H192.441C192.441 32.584 192.932 29.6305 193.607 28.1246L188.132 25.6703ZM186.441 37.4077V57H192.441V37.4077H186.441ZM189.441 54H179.7V60H189.441V54ZM182.7 57V16.2041H176.7V57H182.7ZM179.7 19.2041H187.427V13.2041H179.7V19.2041ZM184.499 16.8592L185.671 22.096L191.526 20.7858L190.354 15.549L184.499 16.8592ZM188.599 24.4409H189.221V18.4409H188.599V24.4409ZM191.936 22.7183C192.698 21.0986 193.64 20.1046 194.689 19.5116L191.737 14.2882C189.417 15.5995 187.698 17.6329 186.507 20.1635L191.936 22.7183ZM194.701 19.5046C195.967 18.7815 197.274 18.4351 198.669 18.4351V12.4351C196.208 12.4351 193.877 13.0652 191.724 14.2952L194.701 19.5046ZM198.669 18.4351C200.679 18.4351 202.11 18.9045 203.159 19.6487C204.209 20.3934 205.129 21.5939 205.801 23.4999L211.46 21.506C210.471 18.7001 208.902 16.3666 206.631 14.7554C204.36 13.1436 201.641 12.4351 198.669 12.4351V18.4351ZM208.63 25.5029H208.997V19.5029H208.63V25.5029ZM211.742 23.7121C212.617 21.7252 213.664 20.4434 214.784 19.6517C215.882 18.8756 217.239 18.4351 218.994 18.4351V12.4351C216.159 12.4351 213.555 13.1725 211.321 14.7524C209.108 16.3166 207.451 18.5687 206.251 21.2938L211.742 23.7121ZM218.994 18.4351C221.813 18.4351 223.574 19.3706 224.775 21.0137L229.619 17.4736C227.109 14.0385 223.402 12.4351 218.994 12.4351V18.4351ZM224.786 21.0288C226.126 22.8381 227.017 25.8076 227.017 30.3765H233.017C233.017 25.1797 232.029 20.7274 229.608 17.4585L224.786 21.0288ZM227.017 30.3765V57H233.017V30.3765H227.017ZM230.017 54H220.203V60H230.017V54ZM240.894 52.3125L238.557 54.1942L238.564 54.2028L238.571 54.2114L240.894 52.3125ZM262.134 20.3057L259.779 22.1646L259.786 22.1732L262.134 20.3057ZM265.979 39.0923V42.0923H268.979V39.0923H265.979ZM246.387 39.0923V36.0923H243.326L243.387 39.1527L246.387 39.0923ZM248.621 47.2222L246.272 49.0884L246.278 49.0963L246.284 49.1042L248.621 47.2222ZM264.221 46.8926H267.221V41.614L262.686 44.3151L264.221 46.8926ZM264.221 54.9126L265.768 57.4833L267.221 56.6089V54.9126H264.221ZM248.108 25.1763L250.661 26.7509L250.667 26.7415L250.673 26.7321L248.108 25.1763ZM246.533 32.0244L243.537 31.8828L243.388 35.0244H246.533V32.0244ZM256.421 32.0244V35.0244H259.47L259.42 31.9752L256.421 32.0244ZM252.979 54.7324C248.681 54.7324 245.543 53.2592 243.216 50.4136L238.571 54.2114C242.153 58.5923 247.071 60.7324 252.979 60.7324V54.7324ZM243.23 50.4308C240.879 47.5111 239.499 43.1337 239.499 36.895H233.499C233.499 43.9376 235.049 49.8385 238.557 54.1942L243.23 50.4308ZM239.499 36.895C239.499 30.5053 240.767 25.9331 242.945 22.837L238.037 19.3856C234.892 23.8579 233.499 29.8082 233.499 36.895H239.499ZM242.945 22.837C245.025 19.879 247.806 18.4351 251.624 18.4351V12.4351C245.92 12.4351 241.279 14.7753 238.037 19.3856L242.945 22.837ZM251.624 18.4351C255.227 18.4351 257.831 19.6974 259.779 22.1646L264.488 18.4467C261.309 14.4198 256.907 12.4351 251.624 12.4351V18.4351ZM259.786 22.1732C261.782 24.6828 262.979 28.4587 262.979 33.8921H268.979C268.979 27.6555 267.612 22.3739 264.482 18.4381L259.786 22.1732ZM262.979 33.8921V39.0923H268.979V33.8921H262.979ZM265.979 36.0923L246.387 36.0923V42.0923H265.979V36.0923ZM243.387 39.1527C243.466 43.0824 244.267 46.5649 246.272 49.0884L250.969 45.3559C250.142 44.315 249.453 42.3775 249.386 39.0319L243.387 39.1527ZM246.284 49.1042C248.334 51.648 251.189 52.8589 254.48 52.8589V46.8589C252.791 46.8589 251.74 46.3119 250.957 45.3402L246.284 49.1042ZM254.48 52.8589C258.301 52.8589 262.073 51.664 265.756 49.4701L262.686 44.3151C259.729 46.0762 257.007 46.8589 254.48 46.8589V52.8589ZM261.221 46.8926V54.9126H267.221V46.8926H261.221ZM262.675 52.3419C260.102 53.8897 256.912 54.7324 252.979 54.7324V60.7324C257.785 60.7324 262.091 59.6952 265.768 57.4833L262.675 52.3419ZM251.55 19.9424C248.838 19.9424 246.832 21.4948 245.543 23.6204L250.673 26.7321C250.952 26.2715 251.173 26.086 251.279 26.0174C251.358 25.9664 251.423 25.9424 251.55 25.9424V19.9424ZM245.554 23.6016C244.247 25.7213 243.691 28.6229 243.537 31.8828L249.53 32.166C249.669 29.2247 250.162 27.5609 250.661 26.7509L245.554 23.6016ZM246.533 35.0244L256.421 35.0244V29.0244L246.533 29.0244V35.0244ZM259.42 31.9752C259.368 28.8028 258.895 25.9638 257.688 23.7926L252.443 26.7064C252.946 27.6114 253.376 29.289 253.421 32.0736L259.42 31.9752ZM257.688 23.7926C256.42 21.5087 254.347 19.9424 251.55 19.9424V25.9424C251.748 25.9424 251.834 25.9841 251.9 26.0273C251.99 26.0861 252.193 26.2556 252.443 26.7064L257.688 23.7926Z" fill="#E73539" mask="url(#path-1-outside-1_4_14)"/>
</svg>
